<svg width="12" height="12" viewBox="0 0 12 12" fill="none" xmlns="http://www.w3.org/2000/svg">
<path d="M10.8 4.44L11.72 4.64C11.8 4.66667 11.8667 4.70667 11.92 4.76C11.9733 4.81333 12 4.89333 12 5V7C12 7.10667 11.9733 7.18667 11.92 7.24C11.8667 7.29333 11.8 7.33333 11.72 7.36L10.8 7.56C10.72 7.8 10.6133 8.04 10.48 8.28L11 9.08C11.0533 9.16 11.0667 9.24 11.04 9.32C11.04 9.4 11.0133 9.46667 10.96 9.52L9.52 10.96C9.46667 11.0133 9.4 11.0533 9.32 11.08C9.24 11.08 9.16 11.0533 9.08 11L8.28 10.48C8.04 10.6133 7.8 10.72 7.56 10.8L7.36 11.72C7.33333 11.8 7.29333 11.8667 7.24 11.92C7.18667 11.9733 7.10667 12 7 12H5C4.89333 12 4.81333 11.9733 4.76 11.92C4.70667 11.8667 4.66667 11.8 4.64 11.72L4.44 10.8C4.2 10.72 3.96 10.6133 3.72 10.48L2.92 11C2.84 11.0533 2.76 11.08 2.68 11.08C2.6 11.0533 2.53333 11.0133 2.48 10.96L1.04 9.52C0.986667 9.46667 0.946667 9.4 0.92 9.32C0.92 9.24 0.946667 9.16 1 9.08L1.52 8.28C1.38667 8.04 1.28 7.8 1.2 7.56L0.28 7.36C0.2 7.33333 0.133333 7.29333 0.08 7.24C0.0266667 7.18667 0 7.10667 0 7V5C0 4.89333 0.0266667 4.81333 0.08 4.76C0.133333 4.70667 0.2 4.66667 0.28 4.64L1.2 4.44C1.28 4.2 1.38667 3.96 1.52 3.72L1 2.92C0.946667 2.84 0.92 2.76 0.92 2.68C0.946667 2.6 0.986667 2.53333 1.04 2.48L2.48 1.04C2.53333 0.986666 2.6 0.96 2.68 0.96C2.76 0.933333 2.84 0.946666 2.92 1L3.72 1.52C3.96 1.38667 4.2 1.28 4.44 1.2L4.64 0.28C4.66667 0.2 4.70667 0.133333 4.76 0.0799999C4.81333 0.0266666 4.89333 0 5 0H7C7.10667 0 7.18667 0.0266666 7.24 0.0799999C7.29333 0.133333 7.33333 0.2 7.36 0.28L7.56 1.2C7.8 1.28 8.04 1.38667 8.28 1.52L9.08 1C9.16 0.946666 9.24 0.933333 9.32 0.96C9.4 0.96 9.46667 0.986666 9.52 1.04L10.96 2.48C11.0133 2.53333 11.04 2.6 11.04 2.68C11.0667 2.76 11.0533 2.84 11 2.92L10.48 3.72C10.6133 3.96 10.72 4.2 10.8 4.44ZM6 8.16C6.58667 8.16 7.09333 7.94667 7.52 7.52C7.94667 7.09333 8.16 6.58667 8.16 6C8.16 5.41333 7.94667 4.90667 7.52 4.48C7.09333 4.05333 6.58667 3.84 6 3.84C5.41333 3.84 4.90667 4.05333 4.48 4.48C4.05333 4.90667 3.84 5.41333 3.84 6C3.84 6.58667 4.05333 7.09333 4.48 7.52C4.90667 7.94667 5.41333 8.16 6 8.16Z" fill="white"/>
</svg>
