<svg width="25" height="21" viewBox="0 0 25 21" fill="none" xmlns="http://www.w3.org/2000/svg">
<path fill-rule="evenodd" clip-rule="evenodd" d="M11.6426 0.611379C12.1616 0.826351 12.5 1.3328 12.5 1.89454V18.5611C12.5 19.123 12.1616 19.6293 11.6426 19.8443C11.1236 20.0593 10.5262 19.9405 10.129 19.5432L4.98026 14.3945H1.38889C0.621832 14.3945 0 13.7727 0 13.0056V7.45009C0 6.68302 0.621832 6.06121 1.38889 6.06121H4.98026L10.129 0.912449C10.5262 0.515227 11.1236 0.396408 11.6426 0.611379Z" fill="white"/>
<path fill-rule="evenodd" clip-rule="evenodd" d="M18.9678 0.406791C19.5103 -0.135597 20.3896 -0.135597 20.9321 0.406791C23.4439 2.91866 25 6.39278 25 10.2277C25 14.0626 23.4439 17.5368 20.9321 20.0486C20.3896 20.591 19.5103 20.591 18.9678 20.0486C18.4254 19.5062 18.4254 18.6268 18.9678 18.0844C20.9801 16.0722 22.2222 13.2964 22.2222 10.2277C22.2222 7.15907 20.9801 4.3832 18.9678 2.37097C18.4254 1.82858 18.4254 0.949179 18.9678 0.406791ZM15.0395 4.33516C15.5818 3.79276 16.4613 3.79276 17.0036 4.33516C17.734 5.06555 18.33 5.93177 18.7504 6.89387C19.1972 7.91656 19.4445 9.0451 19.4445 10.2277C19.4445 12.5285 18.5102 14.6137 17.0036 16.1203C16.4613 16.6626 15.5818 16.6626 15.0395 16.1203C14.4971 15.5779 14.4971 14.6985 15.0395 14.1561C16.0464 13.1492 16.6667 11.7622 16.6667 10.2277C16.6667 9.43503 16.5015 8.68459 16.205 8.006C15.9254 7.36609 15.5281 6.78788 15.0395 6.29934C14.4971 5.75695 14.4971 4.87755 15.0395 4.33516Z" fill="white"/>
</svg>
