<svg width="30" height="26" viewBox="0 0 30 26" fill="none" xmlns="http://www.w3.org/2000/svg">
  <path fill-rule="evenodd" clip-rule="evenodd" d="M13.9711 1.27902C14.5939 1.53698 15 2.14472 15 2.81881V22.8187C15 23.4929 14.5939 24.1006 13.9711 24.3586C13.3483 24.6166 12.6315 24.4739 12.1548 23.9972L5.97631 17.8187H1.66666C0.746199 17.8187 0 17.0726 0 16.1521V9.48547C0 8.56499 0.746199 7.81881 1.66666 7.81881H5.97631L12.1548 1.6403C12.6315 1.16363 13.3483 1.02105 13.9711 1.27902Z" fill="white"/>
  <path fill-rule="evenodd" clip-rule="evenodd" d="M22.7613 1.03356C23.4123 0.382694 24.4675 0.382694 25.1185 1.03356C28.1327 4.04781 30 8.21675 30 12.8187C30 17.4206 28.1327 21.5896 25.1185 24.6037C24.4675 25.2546 23.4123 25.2546 22.7613 24.6037C22.1105 23.9529 22.1105 22.8976 22.7613 22.2467C25.1762 19.8321 26.6667 16.5011 26.6667 12.8187C26.6667 9.1363 25.1762 5.80525 22.7613 3.39057C22.1105 2.73971 22.1105 1.68443 22.7613 1.03356ZM18.0473 5.7476C18.6982 5.09672 19.7535 5.09672 20.4043 5.7476C21.2808 6.62407 21.996 7.66353 22.5005 8.81805C23.0367 10.0453 23.3333 11.3995 23.3333 12.8187C23.3333 15.5796 22.2122 18.0819 20.4043 19.8897C19.7535 20.5406 18.6982 20.5406 18.0473 19.8897C17.3965 19.2389 17.3965 18.1836 18.0473 17.5327C19.2557 16.3244 20 14.6601 20 12.8187C20 11.8674 19.8018 10.9669 19.446 10.1526C19.1105 9.38471 18.6337 8.69087 18.0473 8.10462C17.3965 7.45375 17.3965 6.39847 18.0473 5.7476Z" fill="white"/>
</svg>
