<svg width="23" height="24" viewBox="0 0 23 24" fill="none" xmlns="http://www.w3.org/2000/svg">
<path fill-rule="evenodd" clip-rule="evenodd" d="M10.5096 4.33803C10.9781 4.53208 11.2836 4.98924 11.2836 5.49632V20.541C11.2836 21.0482 10.9781 21.5053 10.5096 21.6994C10.0411 21.8934 9.50188 21.7861 9.14331 21.4276L4.49561 16.7799H1.25373C0.56132 16.7799 0 16.2186 0 15.5261V10.5112C0 9.81882 0.56132 9.25751 1.25373 9.25751H4.49561L9.14331 4.6098C9.50188 4.25123 10.0411 4.14397 10.5096 4.33803Z" fill="white"/>
<path fill-rule="evenodd" clip-rule="evenodd" d="M17.122 4.15334C17.6117 3.66373 18.4054 3.66373 18.8951 4.15334C21.1625 6.42077 22.5672 9.55681 22.5672 13.0186C22.5672 16.4803 21.1625 19.6164 18.8951 21.8837C18.4054 22.3733 17.6117 22.3733 17.122 21.8837C16.6324 21.3942 16.6324 20.6003 17.122 20.1107C18.9385 18.2943 20.0597 15.7886 20.0597 13.0186C20.0597 10.2485 18.9385 7.74279 17.122 5.92638C16.6324 5.43677 16.6324 4.64294 17.122 4.15334ZM13.5759 7.69943C14.0655 7.20981 14.8594 7.20981 15.349 7.69943C16.0083 8.35874 16.5463 9.14066 16.9258 10.0091C17.3291 10.9323 17.5523 11.951 17.5523 13.0186C17.5523 15.0954 16.7089 16.9778 15.349 18.3377C14.8594 18.8273 14.0655 18.8273 13.5759 18.3377C13.0863 17.8481 13.0863 17.0542 13.5759 16.5647C14.4849 15.6557 15.0448 14.4037 15.0448 13.0186C15.0448 12.303 14.8957 11.6256 14.6281 11.013C14.3757 10.4354 14.017 9.91346 13.5759 9.47246C13.0863 8.98286 13.0863 8.18903 13.5759 7.69943Z" fill="white"/>
<line x1="8.63445" y1="23.3793" x2="18.6345" y2="1.3793" stroke="white" stroke-width="3"/>
</svg>
